<?xml version="1.0" encoding="iso-8859-1"?>
<!-- Generator: Adobe Illustrator 19.0.0, SVG Export Plug-In . SVG Version: 6.00 Build 0)  -->
<!-- License: CC0. Made by SVG Repo: https://www.svgrepo.com/svg/264203/india -->
<svg version="1.1" id="Layer_1" xmlns="http://www.w3.org/2000/svg" xmlns:xlink="http://www.w3.org/1999/xlink" x="0px" y="0px"
	 viewBox="0 0 512 512" style="enable-background:new 0 0 512 512;" xml:space="preserve">
<path style="fill:#7AA937;" d="M497.413,341.333H14.587C49.734,440.759,144.538,512,256,512
	C367.459,512,462.266,440.759,497.413,341.333z"/>
<path style="fill:#DF6246;" d="M14.587,170.667h482.826C462.266,71.24,367.459,0,256,0C144.538,0,49.734,71.24,14.587,170.667z"/>
<path style="fill:#D6E5F6;" d="M0,256c0,29.925,5.151,58.639,14.587,85.333h482.826C506.846,314.639,512,285.925,512,256
	c0-29.923-5.154-58.641-14.587-85.333H14.587C5.151,197.359,0,226.077,0,256z"/>
<path style="fill:#668E2F;" d="M256,512c111.459,0,206.266-71.241,241.413-170.667H256V512z"/>
<path style="fill:#DD512A;" d="M497.413,170.667C462.266,71.24,367.459,0,256,0v170.667H497.413z"/>
<path style="fill:#BCD6F2;" d="M497.413,170.667H256v170.667h241.413C506.846,314.639,512,285.925,512,256
	C512,226.077,506.846,197.359,497.413,170.667z"/>
<path style="fill:#8CB7E8;" d="M256,338.488c-45.486,0-82.49-37.006-82.49-82.488c0-45.484,37.004-82.49,82.49-82.49
	c45.483,0,82.487,37.006,82.487,82.49C338.487,301.483,301.483,338.488,256,338.488z M256,224.71
	c-17.253,0-31.29,14.037-31.29,31.29s14.037,31.288,31.29,31.288c17.249,0,31.287-14.036,31.287-31.288S273.249,224.71,256,224.71z"
	/>
<path style="fill:#6398DE;" d="M256,173.51v51.2c17.249,0,31.287,14.037,31.287,31.29S273.249,287.288,256,287.288v51.2
	c45.483,0,82.487-37.006,82.487-82.488C338.487,210.516,301.483,173.51,256,173.51z"/>
</svg>
